<?xml version="1.0" encoding="iso-8859-1"?>
<!-- Generator: Adobe Illustrator 19.0.0, SVG Export Plug-In . SVG Version: 6.00 Build 0)  -->
<svg version="1.1" id="Layer_1" xmlns="http://www.w3.org/2000/svg" xmlns:xlink="http://www.w3.org/1999/xlink" x="0px" y="0px"
	 viewBox="0 0 512 512" style="enable-background:new 0 0 512 512;" xml:space="preserve">
<path style="fill:#9F7267;" d="M108.525,7.1c-5.579-8.454-17.559-9.551-24.58-2.25L64.54,25.026
	C50.57,39.553,44.925,60.175,49.549,79.793l37.249,151.09l65.966-156.75L108.525,7.1z"/>
<g>
	<path style="fill:#76554D;" d="M403.475,7.1c5.579-8.454,17.559-9.551,24.58-2.25l19.405,20.177
		c13.971,14.526,19.616,35.15,14.991,54.766l-37.249,151.09l-65.966-156.75L403.475,7.1z"/>
	<path style="fill:#76554D;" d="M421.601,204.646l-25.392-95.036c-4.728-17.693-17.506-32.128-34.495-38.967l0,0
		c-21.831-8.788-46.59-6.255-66.189,6.771l0,0c-23.947,15.915-55.102,15.915-79.049,0l0,0
		c-19.599-13.026-44.357-15.559-66.189-6.771l0,0c-16.989,6.838-29.767,21.275-34.495,38.967l-25.392,95.036l-8.43,7.479
		c-33.945,30.117-53.372,73.327-53.372,118.706l0,0c0,63.217,37.521,120.405,95.51,145.574l36.243,15.73
		c61.017,26.484,130.282,26.484,191.299,0l36.243-15.73c57.99-25.171,95.51-82.357,95.51-145.574l0,0
		c0-45.38-19.427-88.589-53.372-118.706L421.601,204.646z"/>
</g>
<path style="fill:#9F7267;" d="M256.001,89.351c-13.776,0-27.551-3.979-39.525-11.937l0,0
	c-19.599-13.026-44.357-15.559-66.189-6.771l0,0c-16.989,6.838-29.767,21.275-34.495,38.967l-25.392,95.036l-8.43,7.479
	c-33.945,30.117-53.372,73.327-53.372,118.706l0,0c0,63.217,37.521,120.405,95.51,145.574l36.243,15.73
	C190.859,505.379,223.429,512,255.999,512L256.001,89.351z"/>
<path style="fill:#DDD47F;" d="M270.264,458.918h-28.529c-40.041,0-72.5-32.459-72.5-72.5V360.92
	c0-44.356,28.496-83.692,70.644-97.515l0,0c10.472-3.434,21.768-3.434,32.239,0l0,0c42.147,13.823,70.644,53.159,70.644,97.515
	v25.498C342.764,426.459,310.305,458.918,270.264,458.918z"/>
<path style="fill:#FFF28E;" d="M256.001,458.918h-14.264c-40.041,0-72.5-32.459-72.5-72.5V360.92
	c0-44.356,28.496-83.692,70.644-97.515l0,0c5.236-1.717,10.678-2.576,16.119-2.576L256.001,458.918z"/>
<circle style="fill:#2F3031;" cx="137.482" cy="174.536" r="23.045"/>
<circle style="fill:#010100;" cx="374.522" cy="174.536" r="23.045"/>
<path style="fill:#76554D;" d="M274.677,384.245v-26.147c0-10.314-8.362-18.676-18.676-18.676s-18.676,8.362-18.676,18.676v26.147
	H274.677z"/>
<path style="fill:#9F7267;" d="M256.001,384.245v-44.823c-10.314,0-18.676,8.362-18.676,18.676v26.147H256.001z"/>
<g>
	<path style="fill:#F6F6F6;" d="M243.55,431.558c-10.314,0-18.676-8.362-18.676-18.676V397.94c0-10.314,8.362-18.676,18.676-18.676
		c10.314,0,18.676,8.362,18.676,18.676v14.941C262.226,423.196,253.864,431.558,243.55,431.558z"/>
	<path style="fill:#F6F6F6;" d="M268.452,431.558c-10.314,0-18.676-8.362-18.676-18.676V397.94c0-10.314,8.362-18.676,18.676-18.676
		c10.314,0,18.676,8.362,18.676,18.676v14.941C287.128,423.196,278.766,431.558,268.452,431.558z"/>
</g>
<path style="fill:#D58C89;" d="M293.255,335.726l-27.275,27.275c-5.491,5.491-14.393,5.491-19.884,0l-27.275-27.275
	c-8.858-8.858-2.585-24.001,9.942-24.001h54.548C295.84,311.725,302.112,326.869,293.255,335.726z"/>
<path style="fill:#F19D9A;" d="M256.039,367.118c-3.598,0-7.197-1.372-9.942-4.117l-27.275-27.275
	c-8.858-8.858-2.585-24.001,9.942-24.001h27.229L256.039,367.118z"/>
<g>
</g>
<g>
</g>
<g>
</g>
<g>
</g>
<g>
</g>
<g>
</g>
<g>
</g>
<g>
</g>
<g>
</g>
<g>
</g>
<g>
</g>
<g>
</g>
<g>
</g>
<g>
</g>
<g>
</g>
</svg>
